HIERARCHY
ROOT Hips
{
	OFFSET -0.001795 -0.223333 0.028219
	CHANNELS 6 Xposition Yposition Zposition Zrotation Yrotation Xrotation 
	JOINT LeftUpLeg
	{
		OFFSET 0.069520 -0.091406 -0.006815
		CHANNELS 3 Zrotation Yrotation Xrotation
		JOINT LeftLeg
		{
			OFFSET 0.034277 -0.375199 -0.004496
			CHANNELS 3 Zrotation Yrotation Xrotation
			JOINT LeftFoot
			{
				OFFSET -0.013596 -0.397961 -0.043693
				CHANNELS 3 Zrotation Yrotation Xrotation
				JOINT LeftToe
				{
					OFFSET 0.026358 -0.055791 0.119288
					CHANNELS 3 Zrotation Yrotation Xrotation
					End Site
					{
						OFFSET 0.000000 0.000000 0.000000
					}
				}
			}
		}
	}
	JOINT RightUpLeg
	{
		OFFSET -0.067670 -0.090522 -0.004320
		CHANNELS 3 Zrotation Yrotation Xrotation
		JOINT RightLeg
		{
			OFFSET -0.038290 -0.382569 -0.008850
			CHANNELS 3 Zrotation Yrotation Xrotation
			JOINT RightFoot
			{
				OFFSET 0.015774 -0.398415 -0.042312
				CHANNELS 3 Zrotation Yrotation Xrotation
				JOINT RightToe
				{
					OFFSET -0.025372 -0.048144 0.123348
					CHANNELS 3 Zrotation Yrotation Xrotation
					End Site
					{
						OFFSET 0.000000 0.000000 0.000000
					}
				}
			}
		}
	}
	JOINT Spine
	{
		OFFSET -0.002533 0.108963 -0.026696
		CHANNELS 3 Zrotation Yrotation Xrotation
		JOINT Spine1
		{
			OFFSET 0.005487 0.135180 0.001092
			CHANNELS 3 Zrotation Yrotation Xrotation
			JOINT Spine2
			{
				OFFSET 0.001457 0.052922 0.025425
				CHANNELS 3 Zrotation Yrotation Xrotation
				JOINT Neck
				{
					OFFSET -0.002778 0.213870 -0.042857
					CHANNELS 3 Zrotation Yrotation Xrotation
					JOINT Head
					{
						OFFSET 0.005152 0.064970 0.051349
						CHANNELS 3 Zrotation Yrotation Xrotation
						End Site
						{
							OFFSET 0.000000 0.000000 0.000000
						}
					}
				}
				JOINT LeftShoulder
				{
					OFFSET 0.078845 0.121749 -0.034090
					CHANNELS 3 Zrotation Yrotation Xrotation
					JOINT LeftArm
					{
						OFFSET 0.090977 0.030469 -0.008868
						CHANNELS 3 Zrotation Yrotation Xrotation
						JOINT LeftForeArm
						{
							OFFSET 0.259612 -0.012772 -0.027456
							CHANNELS 3 Zrotation Yrotation Xrotation
							JOINT LeftHand
							{
								OFFSET 0.249234 0.008986 -0.001171
								CHANNELS 3 Zrotation Yrotation Xrotation
								End Site
								{
									OFFSET 0.000000 0.000000 0.000000
								}
							}
						}
					}
				}
				JOINT RightShoulder
				{
					OFFSET -0.081759 0.118833 -0.038615
					CHANNELS 3 Zrotation Yrotation Xrotation
					JOINT RightArm
					{
						OFFSET -0.096012 0.032551 -0.009143
						CHANNELS 3 Zrotation Yrotation Xrotation
						JOINT RightForeArm
						{
							OFFSET -0.253742 -0.013329 -0.021401
							CHANNELS 3 Zrotation Yrotation Xrotation
							JOINT RightHand
							{
								OFFSET -0.255298 0.007772 -0.005559
								CHANNELS 3 Zrotation Yrotation Xrotation
								End Site
								{
									OFFSET 0.000000 0.000000 0.000000
								}
							}
						}
					}
				}
			}
		}
	}
}
MOTION
Frames: 18
Frame Time: 0.050000
-0.000848 0.955870 -0.052934 -1.111475 -0.400878 4.232966 4.009912 -0.179813 -1.619758 -0.116125 0.136962 -3.773809 0.461084 5.148169 11.417699 0.000000 0.000000 0.000000 -3.048242 0.327499 -3.009802 -3.491535 0.078697 -4.032057 3.259853 -0.364520 15.753839 0.000000 0.000000 0.000000 5.975054 0.326829 -4.946242 -3.239121 1.521125 -1.753278 -5.351790 6.768474 12.094805 11.798226 -6.713003 -11.693665 0.000000 0.000000 0.000000 -2.555259 -10.495744 3.244334 -48.512804 -31.058234 5.714482 -127.511228 -70.533411 112.121693 0.000000 0.000000 0.000000 1.430019 2.422051 0.938598 57.105900 27.562325 8.367148 135.081302 65.969523 126.217673 0.000000 0.000000 0.000000 
-0.001291 0.955663 -0.053085 -1.182287 -0.287787 4.456422 4.142686 -0.208766 -2.069305 -0.249545 0.133966 -3.368205 0.540119 5.236708 11.240438 0.000000 0.000000 0.000000 -3.048216 0.351346 -3.315504 -3.333807 0.091777 -3.688947 3.265212 -0.247145 15.551925 0.000000 0.000000 0.000000 5.864613 0.321005 -4.968879 -3.035963 1.429193 -1.559379 -5.514374 6.467715 11.810306 11.996127 -6.917467 -11.489977 0.000000 0.000000 0.000000 -3.105939 -10.187918 3.112312 -47.948439 -30.469151 5.447816 -123.850650 -70.498429 107.810232 0.000000 0.000000 0.000000 2.169999 2.179180 0.865522 56.739277 27.093941 7.978510 131.666378 66.420642 121.868333 0.000000 0.000000 0.000000 
-0.001726 0.955529 -0.053089 -1.145602 -0.283600 4.493858 4.246771 -0.214132 -2.150693 -0.512415 0.148188 -3.149530 0.626073 5.355788 11.161620 0.000000 0.000000 0.000000 -3.135324 0.359344 -3.413829 -3.252900 0.109270 -3.346650 3.323745 0.039676 15.131358 0.000000 0.000000 0.000000 5.617255 0.295187 -4.748334 -2.886478 1.360660 -1.589386 -5.511953 6.346077 11.849401 11.906417 -6.912180 -11.304733 0.000000 0.000000 0.000000 -4.052017 -9.771220 2.909489 -47.503901 -30.283211 5.344095 -118.789071 -70.489696 102.022397 0.000000 0.000000 0.000000 2.882936 1.919532 0.782073 57.162718 25.871948 7.359805 126.386950 65.905498 114.438333 0.000000 0.000000 0.000000 
-0.002225 0.955343 -0.052921 -1.176285 -0.126020 4.538874 4.421789 -0.221257 -2.238960 -0.747976 0.163186 -3.010981 0.701997 5.555672 11.350139 0.000000 0.000000 0.000000 -2.988155 0.368431 -3.551087 -3.288510 0.135962 -3.006378 3.205497 -0.029190 14.847783 0.000000 0.000000 0.000000 5.402334 0.276081 -4.597482 -2.765326 1.306438 -1.274657 -5.609903 6.106720 11.386213 12.007229 -6.916974 -11.534520 0.000000 0.000000 0.000000 -4.762446 -9.561744 2.786720 -47.147119 -29.936451 5.231532 -113.710578 -70.395519 96.218944 0.000000 0.000000 0.000000 3.783312 1.751851 0.731309 57.712470 24.862306 6.918808 120.056647 65.081363 105.490220 0.000000 0.000000 0.000000 
-0.002682 0.954962 -0.052561 -1.138980 0.029810 4.516090 4.469142 -0.222785 -2.247013 -0.888615 0.165730 -2.680334 0.799167 5.668526 11.128661 0.000000 0.000000 0.000000 -2.951164 0.369606 -3.580645 -3.270253 0.160967 -2.633023 2.935488 -0.386084 14.573514 0.000000 0.000000 0.000000 5.156772 0.255983 -4.415360 -2.666721 1.261431 -1.310967 -5.655995 5.989703 11.376885 12.061973 -7.069556 -11.110709 0.000000 0.000000 0.000000 -5.555932 -9.636794 2.761952 -46.591964 -29.918723 5.175932 -109.543341 -70.305377 91.583523 0.000000 0.000000 0.000000 4.646375 1.651010 0.710659 58.406210 23.710788 6.381692 115.220241 64.304545 98.846085 0.000000 0.000000 0.000000 
-0.003143 0.954747 -0.052105 -1.087791 0.242542 4.525839 4.515987 -0.222102 -2.189590 -0.962988 0.171458 -2.676583 0.711829 5.541181 11.113853 0.000000 0.000000 0.000000 -2.935346 0.370748 -3.605709 -3.357473 0.180167 -2.472234 2.940670 -0.250246 14.357304 0.000000 0.000000 0.000000 5.090163 0.239193 -4.248433 -2.582284 1.222822 -1.024001 -5.916430 6.028523 10.837390 12.346499 -7.333779 -10.747375 0.000000 0.000000 0.000000 -5.765800 -9.723729 2.749699 -46.172379 -30.008860 5.201799 -108.103489 -70.015036 89.513418 0.000000 0.000000 0.000000 5.184966 1.494830 0.669113 58.881303 22.627151 5.931696 113.318695 64.090788 96.463739 0.000000 0.000000 0.000000 
-0.003476 0.954618 -0.051596 -1.039362 0.379621 4.614081 4.576178 -0.216662 -2.030772 -0.979346 0.174617 -2.758439 0.622200 5.375699 11.015873 0.000000 0.000000 0.000000 -2.883535 0.367373 -3.561285 -3.438390 0.177430 -2.617322 2.874063 -0.324965 14.296281 0.000000 0.000000 0.000000 5.052097 0.243024 -4.329571 -2.578792 1.220938 -0.902541 -6.062059 5.984516 10.623884 12.366429 -7.492835 -10.165192 0.000000 0.000000 0.000000 -6.020671 -9.791546 2.748035 -45.701041 -30.373786 5.300134 -106.776022 -70.388639 88.455738 0.000000 0.000000 0.000000 5.792818 1.238684 0.578759 59.231343 21.935627 5.609545 112.073016 63.999344 94.952808 0.000000 0.000000 0.000000 
-0.003728 0.954538 -0.051048 -0.909857 0.568649 4.666621 4.519753 -0.210067 -1.866155 -0.953235 0.176012 -2.909072 0.340958 4.951409 11.094173 0.000000 0.000000 0.000000 -2.958342 0.358468 -3.442806 -3.386662 0.178931 -2.546944 2.668847 -0.540493 13.967869 0.000000 0.000000 0.000000 4.943027 0.238074 -4.314394 -2.404837 1.139551 -0.713050 -6.322906 6.031033 10.144974 12.768016 -7.972117 -9.396769 0.000000 0.000000 0.000000 -6.622243 -9.939166 2.730474 -44.956959 -30.511778 5.300673 -105.593931 -70.398107 87.047049 0.000000 0.000000 0.000000 6.539484 0.899782 0.461685 59.424551 21.356679 5.349304 111.753387 64.286279 94.985571 0.000000 0.000000 0.000000 
-0.003955 0.954321 -0.050441 -0.812702 0.686979 4.819293 4.390339 -0.207085 -1.781753 -0.952793 0.181433 -3.134173 0.200846 4.737576 11.119192 0.000000 0.000000 0.000000 -2.920993 0.354029 -3.376652 -3.482551 0.176299 -2.702538 2.490172 -0.768745 13.753700 0.000000 0.000000 0.000000 4.877622 0.248456 -4.487854 -2.271195 1.075471 -0.431895 -6.458985 5.947347 9.603442 12.890404 -8.168170 -8.936565 0.000000 0.000000 0.000000 -6.965809 -9.922428 2.684553 -44.828066 -30.803729 5.457024 -103.298944 -70.881448 85.118336 0.000000 0.000000 0.000000 7.050373 0.597965 0.335917 59.546203 20.761427 5.075691 112.036222 64.973294 96.012548 0.000000 0.000000 0.000000 
-0.004329 0.953776 -0.049922 -0.689721 0.900921 4.829081 4.335008 -0.200970 -1.639625 -0.973876 0.183519 -3.170194 -0.000822 4.310241 10.777088 0.000000 0.000000 0.000000 -3.041069 0.347671 -3.295086 -3.566932 0.180834 -2.753479 2.343500 -0.922435 13.535917 0.000000 0.000000 0.000000 4.927603 0.245963 -4.467849 -2.101763 0.995387 -0.351931 -6.727851 5.761056 9.204257 13.203412 -8.422504 -8.818546 0.000000 0.000000 0.000000 -7.427111 -10.265607 2.779525 -44.527540 -30.922225 5.514006 -100.932892 -71.552407 83.389676 0.000000 0.000000 0.000000 7.441304 0.406717 0.252745 59.849526 20.479858 4.989976 111.824914 65.870970 96.710523 0.000000 0.000000 0.000000 
-0.005037 0.953395 -0.049758 -0.548591 1.053310 4.867598 4.218819 -0.193336 -1.496862 -0.922862 0.186534 -3.451800 -0.314313 3.866940 10.973641 0.000000 0.000000 0.000000 -3.078887 0.341943 -3.220309 -3.712991 0.187253 -2.837627 2.220582 -1.109733 13.484826 0.000000 0.000000 0.000000 4.932579 0.258544 -4.640498 -1.865169 0.881030 -0.058828 -7.001945 5.616992 8.701454 13.223758 -8.521548 -8.453615 0.000000 0.000000 0.000000 -7.674833 -10.490865 2.841262 -44.351850 -31.392153 5.721050 -96.988669 -72.956452 80.865472 0.000000 0.000000 0.000000 7.744631 0.152734 0.138214 59.816876 20.454418 5.001961 111.192941 66.926697 97.079468 0.000000 0.000000 0.000000 
-0.005995 0.952978 -0.050011 -0.483272 1.246213 4.917766 4.197839 -0.192015 -1.438421 -0.918690 0.185164 -3.426141 -0.521787 3.411144 10.611890 0.000000 0.000000 0.000000 -3.086955 0.335459 -3.136327 -3.729531 0.167688 -3.138883 2.255916 -1.047217 13.576124 0.000000 0.000000 0.000000 5.116024 0.268271 -4.748395 -1.892675 0.892053 0.088125 -7.134526 5.421072 8.291321 13.146188 -8.486315 -8.307406 0.000000 0.000000 0.000000 -7.868130 -10.819916 2.958835 -43.742076 -32.228279 5.975089 -94.184358 -74.762192 79.976820 0.000000 0.000000 0.000000 7.947797 0.179303 0.141359 59.624549 20.951091 5.267755 110.624623 68.555776 98.111066 0.000000 0.000000 0.000000 
-0.007065 0.952963 -0.050608 -0.317461 1.080877 4.904199 3.906744 -0.192310 -1.546662 -0.739531 0.165837 -3.197168 -0.483164 3.413328 10.482359 0.000000 0.000000 0.000000 -3.192418 0.338217 -3.159050 -3.811575 0.166855 -3.224162 2.317942 -0.981469 13.635664 0.000000 0.000000 0.000000 5.143582 0.273923 -4.799102 -1.814186 0.856376 -0.010838 -7.200629 5.356853 8.066504 12.920534 -8.434803 -7.886571 0.000000 0.000000 0.000000 -7.584010 -11.296531 3.184536 -43.429419 -33.115204 6.255404 -92.208414 -77.235161 80.647352 0.000000 0.000000 0.000000 7.844628 0.457180 0.248696 59.700822 22.087822 5.910364 109.875353 70.100908 98.828267 0.000000 0.000000 0.000000 
-0.007936 0.953052 -0.051272 -0.168026 1.045140 4.876509 3.728965 -0.196619 -1.671427 -0.674061 0.155041 -2.987716 -0.465203 3.429221 10.450369 0.000000 0.000000 0.000000 -3.220709 0.337030 -3.141366 -3.864159 0.165059 -3.300629 2.455149 -0.824820 13.873812 0.000000 0.000000 0.000000 5.254031 0.291564 -4.978326 -1.895305 0.892335 0.234508 -7.213957 5.171312 7.626097 12.652239 -8.278771 -7.674299 0.000000 0.000000 0.000000 -7.176739 -11.560918 3.330639 -43.149770 -34.064065 6.577315 -91.025770 -79.232702 81.588933 0.000000 0.000000 0.000000 7.570889 0.861605 0.400006 59.671464 23.446916 6.697747 109.624218 71.473553 99.812606 0.000000 0.000000 0.000000 
-0.008584 0.953303 -0.051879 -0.002236 0.934690 4.836963 3.483208 -0.195902 -1.726337 -0.568693 0.141982 -2.820285 -0.303571 3.648684 10.325607 0.000000 0.000000 0.000000 -3.409550 0.335356 -3.100321 -3.810204 0.150164 -3.441332 2.610887 -0.553459 13.880021 0.000000 0.000000 0.000000 5.351033 0.301626 -5.060200 -1.947872 0.919203 0.082297 -7.162310 5.172334 7.600242 12.612189 -8.231267 -7.740245 0.000000 0.000000 0.000000 -7.042437 -11.938915 3.497043 -42.953542 -34.497083 6.696814 -91.545591 -81.000230 83.951542 0.000000 0.000000 0.000000 7.199027 1.317511 0.589481 59.810608 24.700140 7.432481 109.585711 72.477105 100.797211 0.000000 0.000000 0.000000 
-0.009024 0.953439 -0.052413 0.209253 1.125286 4.824162 3.249084 -0.200241 -1.828352 -0.540223 0.136312 -2.707745 -0.421619 3.516145 10.457045 0.000000 0.000000 0.000000 -3.637793 0.336178 -3.111661 -3.832777 0.147006 -3.520981 2.732411 -0.346876 14.011884 0.000000 0.000000 0.000000 5.377418 0.310934 -5.173924 -1.927239 0.907529 0.234837 -7.167787 4.959527 7.295159 12.512233 -8.039917 -8.112182 0.000000 0.000000 0.000000 -7.168314 -11.955981 3.502546 -43.042812 -34.627945 6.802434 -91.388473 -81.774915 84.609652 0.000000 0.000000 0.000000 6.882806 1.516881 0.658239 60.022812 25.345687 7.883448 110.167977 72.856197 101.726560 0.000000 0.000000 0.000000 
-0.009399 0.953504 -0.052954 0.245943 1.279028 4.730754 3.220612 -0.209768 -1.986623 -0.531958 0.122229 -2.251295 -0.320244 3.622138 10.218869 0.000000 0.000000 0.000000 -3.731076 0.333765 -3.097606 -3.872136 0.164891 -3.335594 2.685718 -0.337262 13.835099 0.000000 0.000000 0.000000 5.436008 0.306074 -5.093389 -1.877638 0.885909 0.064563 -7.098735 5.032927 7.249090 12.503568 -7.903897 -8.533911 0.000000 0.000000 0.000000 -7.433070 -11.978801 3.477106 -43.251605 -34.438887 6.787760 -94.403657 -81.647584 87.417963 0.000000 0.000000 0.000000 7.028646 1.671310 0.740480 60.003330 25.710219 8.094865 110.069797 73.040433 101.890669 0.000000 0.000000 0.000000 
-0.009761 0.953601 -0.053539 0.250609 1.374193 4.641125 3.172525 -0.217130 -2.116382 -0.524945 0.113818 -1.986249 -0.274791 3.713626 10.226175 0.000000 0.000000 0.000000 -3.751706 0.331233 -3.081718 -3.786287 0.167845 -3.216228 2.665424 -0.354921 13.822046 0.000000 0.000000 0.000000 5.484247 0.294427 -4.934983 -1.871015 0.882624 0.085703 -6.997407 4.917209 6.956268 12.189905 -7.588052 -8.795285 0.000000 0.000000 0.000000 -7.945821 -11.798493 3.376712 -43.457701 -33.894587 6.682289 -93.910916 -81.064054 86.326250 0.000000 0.000000 0.000000 7.168624 1.894494 0.830245 60.288238 25.771099 8.206620 108.790049 73.041325 100.387842 0.000000 0.000000 0.000000 
